<svg xmlns="http://www.w3.org/2000/svg" width="256" height="256" viewBox="0 0 100 100"><rect width="100" height="100" rx="20" fill="#4a68ff"></rect><path d="M31.79 56.27L26.10 56.27L26.10 69.52Q25.58 69.71 24.75 69.87Q23.92 70.03 22.90 70.03L22.90 70.03Q20.91 70.03 20.05 69.30Q19.18 68.56 19.18 66.83L19.18 66.83L19.18 33.81Q19.18 32.72 19.79 32.11Q20.40 31.50 21.49 31.18L21.49 31.18Q23.47 30.48 26.22 30.22Q28.98 29.97 31.41 29.97L31.41 29.97Q39.73 29.97 43.73 33.49Q47.73 37.01 47.73 43.02L47.73 43.02Q47.73 49.04 43.73 52.66Q39.73 56.27 31.79 56.27L31.79 56.27ZM26.03 50.70L31.34 50.70Q35.76 50.70 38.29 48.78Q40.82 46.86 40.82 43.02L40.82 43.02Q40.82 39.18 38.42 37.39Q36.02 35.60 31.54 35.60L31.54 35.60Q30.06 35.60 28.62 35.73Q27.18 35.86 26.03 36.05L26.03 36.05L26.03 50.70ZM59.44 69.71L59.44 69.71Q57.78 69.71 56.75 68.69Q55.73 67.66 55.73 66L55.73 66L55.73 30.80Q56.24 30.67 57.10 30.51Q57.97 30.35 58.93 30.35L58.93 30.35Q60.78 30.35 61.71 31.06Q62.64 31.76 62.64 33.55L62.64 33.55L62.64 63.95L79.98 63.95Q80.30 64.40 80.56 65.10Q80.82 65.81 80.82 66.70L80.82 66.70Q80.82 68.18 80.11 68.94Q79.41 69.71 78.26 69.71L78.26 69.71L59.44 69.71Z" fill="#efefef"></path></svg>