<svg xmlns="http://www.w3.org/2000/svg" width="256" height="256" viewBox="0 0 100 100"><rect width="100" height="100" rx="20" fill="#4a68ff"></rect><path d="M15.20 52.11L13.18 52.11L13.18 56.41Q13.06 56.45 12.86 56.50Q12.66 56.55 12.42 56.55L12.42 56.55Q11.54 56.55 11.54 55.81L11.54 55.81L11.54 45.17Q11.54 44.85 11.70 44.68Q11.86 44.51 12.20 44.41L12.20 44.41Q12.78 44.23 13.61 44.15Q14.44 44.07 15.22 44.07L15.22 44.07Q17.76 44.07 18.93 45.14Q20.10 46.21 20.10 48.03L20.10 48.03Q20.10 49.89 18.90 51.00Q17.70 52.11 15.20 52.11L15.20 52.11ZM13.16 50.75L15.10 50.75Q16.70 50.75 17.58 50.09Q18.46 49.43 18.46 48.05L18.46 48.05Q18.46 46.69 17.61 46.06Q16.76 45.43 15.18 45.43L15.18 45.43Q14.64 45.43 14.11 45.48Q13.58 45.53 13.16 45.61L13.16 45.61L13.16 50.75ZM24.20 48.93L24.20 56.41Q24.10 56.45 23.90 56.50Q23.70 56.55 23.46 56.55L23.46 56.55Q22.60 56.55 22.60 55.83L22.60 55.83L22.60 49.05Q22.60 48.59 22.77 48.32Q22.94 48.05 23.34 47.79L23.34 47.79Q23.86 47.45 24.75 47.20Q25.64 46.95 26.76 46.95L26.76 46.95Q28.36 46.95 28.36 47.75L28.36 47.75Q28.36 47.95 28.30 48.12Q28.24 48.29 28.14 48.41L28.14 48.41Q27.94 48.37 27.62 48.33Q27.30 48.29 26.98 48.29L26.98 48.29Q26.06 48.29 25.36 48.48Q24.66 48.67 24.20 48.93L24.20 48.93ZM31.94 47.85L31.94 56.41Q31.84 56.45 31.64 56.50Q31.44 56.55 31.20 56.55L31.20 56.55Q30.34 56.55 30.34 55.83L30.34 55.83L30.34 47.25Q30.44 47.21 30.65 47.16Q30.86 47.11 31.10 47.11L31.10 47.11Q31.94 47.11 31.94 47.85L31.94 47.85ZM30.10 44.29L30.10 44.29Q30.10 43.87 30.39 43.58Q30.68 43.29 31.14 43.29L31.14 43.29Q31.60 43.29 31.88 43.58Q32.16 43.87 32.16 44.29L32.16 44.29Q32.16 44.71 31.88 45.00Q31.60 45.29 31.14 45.29L31.14 45.29Q30.68 45.29 30.39 45.00Q30.10 44.71 30.10 44.29ZM39.34 48.29L39.34 48.29Q38.66 48.29 38.08 48.52Q37.50 48.75 37.08 49.20Q36.66 49.65 36.42 50.32Q36.18 50.99 36.18 51.85L36.18 51.85Q36.18 53.57 37.04 54.48Q37.90 55.39 39.34 55.39L39.34 55.39Q40.18 55.39 40.74 55.16Q41.30 54.93 41.74 54.63L41.74 54.63Q41.96 54.75 42.10 54.93Q42.24 55.11 42.24 55.37L42.24 55.37Q42.24 55.65 42.02 55.89Q41.80 56.13 41.41 56.31Q41.02 56.49 40.49 56.60Q39.96 56.71 39.34 56.71L39.34 56.71Q38.30 56.71 37.42 56.41Q36.54 56.11 35.90 55.51Q35.26 54.91 34.90 54.00Q34.54 53.09 34.54 51.85L34.54 51.85Q34.54 50.63 34.92 49.72Q35.30 48.81 35.94 48.19Q36.58 47.57 37.45 47.26Q38.32 46.95 39.30 46.95L39.30 46.95Q39.92 46.95 40.45 47.06Q40.98 47.17 41.36 47.37Q41.74 47.57 41.95 47.82Q42.16 48.07 42.16 48.33L42.16 48.33Q42.16 48.57 42.02 48.75Q41.88 48.93 41.66 49.03L41.66 49.03Q41.22 48.73 40.70 48.51Q40.18 48.29 39.34 48.29ZM51.92 51.91L45.76 52.77Q46.30 55.39 49.20 55.39L49.20 55.39Q50.04 55.39 50.72 55.11Q51.40 54.83 51.80 54.51L51.80 54.51Q52.28 54.79 52.28 55.27L52.28 55.27Q52.28 55.55 52.03 55.81Q51.78 56.07 51.35 56.27Q50.92 56.47 50.35 56.59Q49.78 56.71 49.12 56.71L49.12 56.71Q46.80 56.71 45.45 55.45Q44.10 54.19 44.10 51.77L44.10 51.77Q44.10 50.63 44.43 49.74Q44.76 48.85 45.35 48.23Q45.94 47.61 46.76 47.28Q47.58 46.95 48.54 46.95L48.54 46.95Q49.44 46.95 50.20 47.25Q50.96 47.55 51.51 48.10Q52.06 48.65 52.37 49.40Q52.68 50.15 52.68 51.05L52.68 51.05Q52.68 51.49 52.48 51.68Q52.28 51.87 51.92 51.91L51.92 51.91ZM48.52 48.25L48.52 48.25Q47.30 48.25 46.50 49.10Q45.70 49.95 45.66 51.53L45.66 51.53L51.16 50.77Q51.06 49.67 50.39 48.96Q49.72 48.25 48.52 48.25ZM56.16 56.45L56.16 56.45Q55.78 56.45 55.53 56.21Q55.28 55.97 55.28 55.57L55.28 55.57L55.28 44.33Q55.38 44.29 55.59 44.24Q55.80 44.19 56.04 44.19L56.04 44.19Q56.92 44.19 56.92 44.93L56.92 44.93L56.92 55.05L62.66 55.05Q62.88 55.27 62.88 55.71L62.88 55.71Q62.88 56.05 62.70 56.25Q62.52 56.45 62.22 56.45L62.22 56.45L56.16 56.45ZM66.72 47.85L66.72 56.41Q66.62 56.45 66.42 56.50Q66.22 56.55 65.98 56.55L65.98 56.55Q65.12 56.55 65.12 55.83L65.12 55.83L65.12 47.25Q65.22 47.21 65.43 47.16Q65.64 47.11 65.88 47.11L65.88 47.11Q66.72 47.11 66.72 47.85L66.72 47.85ZM64.88 44.29L64.88 44.29Q64.88 43.87 65.17 43.58Q65.46 43.29 65.92 43.29L65.92 43.29Q66.38 43.29 66.66 43.58Q66.94 43.87 66.94 44.29L66.94 44.29Q66.94 44.71 66.66 45.00Q66.38 45.29 65.92 45.29L65.92 45.29Q65.46 45.29 65.17 45.00Q64.88 44.71 64.88 44.29ZM76.24 50.43L76.24 50.43Q76.24 49.31 75.61 48.79Q74.98 48.27 73.92 48.27L73.92 48.27Q73.12 48.27 72.50 48.47Q71.88 48.67 71.44 48.93L71.44 48.93L71.44 56.41Q71.34 56.45 71.14 56.50Q70.94 56.55 70.70 56.55L70.70 56.55Q69.84 56.55 69.84 55.83L69.84 55.83L69.84 49.01Q69.84 48.59 70.01 48.32Q70.18 48.05 70.60 47.79L70.60 47.79Q71.12 47.47 71.98 47.21Q72.84 46.95 73.92 46.95L73.92 46.95Q75.74 46.95 76.79 47.77Q77.84 48.59 77.84 50.35L77.84 50.35L77.84 56.41Q77.74 56.45 77.53 56.50Q77.32 56.55 77.10 56.55L77.10 56.55Q76.24 56.55 76.24 55.83L76.24 55.83L76.24 50.43ZM82.48 56.41L82.48 56.41Q82.38 56.45 82.18 56.50Q81.98 56.55 81.74 56.55L81.74 56.55Q80.88 56.55 80.88 55.83L80.88 55.83L80.88 43.49Q80.98 43.45 81.19 43.40Q81.40 43.35 81.64 43.35L81.64 43.35Q82.48 43.35 82.48 44.07L82.48 44.07L82.48 51.27L86.86 47.03Q87.34 47.05 87.61 47.26Q87.88 47.47 87.88 47.81L87.88 47.81Q87.88 48.09 87.70 48.30Q87.52 48.51 87.22 48.79L87.22 48.79L84 51.61L88.46 55.61Q88.42 56.05 88.19 56.31Q87.96 56.57 87.58 56.57L87.58 56.57Q87.28 56.57 87.03 56.42Q86.78 56.27 86.52 55.99L86.52 55.99L82.48 51.93L82.48 56.41Z" fill="#efefef"></path></svg>